<?xml version="1.0" encoding="utf-8" standalone="no"?>
<!DOCTYPE svg PUBLIC "-//W3C//DTD SVG 1.1//EN"
  "http://www.w3.org/Graphics/SVG/1.1/DTD/svg11.dtd">
<svg xmlns:xlink="http://www.w3.org/1999/xlink" width="568.8pt" height="280.89375pt" viewBox="0 0 568.8 280.89375" xmlns="http://www.w3.org/2000/svg" version="1.1">
 <metadata>
  <rdf:RDF xmlns:dc="http://purl.org/dc/elements/1.1/" xmlns:cc="http://creativecommons.org/ns#" xmlns:rdf="http://www.w3.org/1999/02/22-rdf-syntax-ns#">
   <cc:Work>
    <dc:type rdf:resource="http://purl.org/dc/dcmitype/StillImage"/>
    <dc:date>2025-09-22T19:21:06.033645</dc:date>
    <dc:format>image/svg+xml</dc:format>
    <dc:creator>
     <cc:Agent>
      <dc:title>Matplotlib v3.8.0, https://matplotlib.org/</dc:title>
     </cc:Agent>
    </dc:creator>
   </cc:Work>
  </rdf:RDF>
 </metadata>
 <defs>
  <style type="text/css">*{stroke-linejoin: round; stroke-linecap: butt}</style>
 </defs>
 <g id="figure_1">
  <g id="patch_1">
   <path d="M 0 280.89375 
L 568.8 280.89375 
L 568.8 0 
L 0 0 
L 0 280.89375 
z
" style="fill: none; opacity: 0"/>
  </g>
  <g id="axes_1">
   <g id="patch_2">
    <path d="M 7.2 255.08 
L 561.6 255.08 
L 561.6 7.2 
L 7.2 7.2 
L 7.2 255.08 
z
" style="fill: none"/>
   </g>
   <g id="patch_3">
    <path d="M 24.8513 255.08 
L 59.159462 255.08 
Q 59.408072 255.08 59.408072 253.330259 
L 59.408072 239.332329 
Q 59.408072 237.582588 59.159462 237.582588 
L 24.8513 237.582588 
Q 24.602691 237.582588 24.602691 239.332329 
L 24.602691 253.330259 
Q 24.602691 255.08 24.8513 255.08 
z
" clip-path="url(#p35c0e11d1c)" style="fill: #c9e3ff; stroke: #1f3b70; stroke-width: 2"/>
   </g>
   <g id="patch_4">
    <path d="M 78.675336 255.08 
L 113.066368 255.08 
Q 113.273543 255.08 113.273543 253.621882 
L 113.273543 241.956941 
Q 113.273543 240.498824 113.066368 240.498824 
L 78.675336 240.498824 
Q 78.468161 240.498824 78.468161 241.956941 
L 78.468161 253.621882 
Q 78.468161 255.08 78.675336 255.08 
z
" clip-path="url(#p35c0e11d1c)" style="fill: #fad7e6; stroke: #1f3b70; stroke-width: 2"/>
   </g>
   <g id="patch_5">
    <path d="M 132.499372 255.08 
L 166.973274 255.08 
Q 167.139013 255.08 167.139013 253.913506 
L 167.139013 244.581553 
Q 167.139013 243.415059 166.973274 243.415059 
L 132.499372 243.415059 
Q 132.333632 243.415059 132.333632 244.581553 
L 132.333632 253.913506 
Q 132.333632 255.08 132.499372 255.08 
z
" clip-path="url(#p35c0e11d1c)" style="fill: #fff1b8; stroke: #1f3b70; stroke-width: 2"/>
   </g>
   <g id="patch_6">
    <path d="M 186.323408 255.08 
L 220.880179 255.08 
Q 221.004484 255.08 221.004484 254.205129 
L 221.004484 247.206165 
Q 221.004484 246.331294 220.880179 246.331294 
L 186.323408 246.331294 
Q 186.199103 246.331294 186.199103 247.206165 
L 186.199103 254.205129 
Q 186.199103 255.08 186.323408 255.08 
z
" clip-path="url(#p35c0e11d1c)" style="fill: #bfe6d9; stroke: #1f3b70; stroke-width: 2"/>
   </g>
   <g id="patch_7">
    <path d="M 242.882152 255.08 
L 272.052377 255.08 
Q 274.869955 255.08 274.869955 235.2496 
L 274.869955 76.6064 
Q 274.869955 56.776 272.052377 56.776 
L 242.882152 56.776 
Q 240.064574 56.776 240.064574 76.6064 
L 240.064574 235.2496 
Q 240.064574 255.08 242.882152 255.08 
z
" clip-path="url(#p35c0e11d1c)" style="fill: #cfede2; stroke: #1f3b70; stroke-width: 2"/>
   </g>
   <g id="patch_8">
    <path d="M 296.664753 255.08 
L 326.000717 255.08 
Q 328.735426 255.08 328.735426 235.832847 
L 328.735426 81.855624 
Q 328.735426 62.608471 326.000717 62.608471 
L 296.664753 62.608471 
Q 293.930045 62.608471 293.930045 81.855624 
L 293.930045 235.832847 
Q 293.930045 255.08 296.664753 255.08 
z
" clip-path="url(#p35c0e11d1c)" style="fill: #ffc8a2; stroke: #1f3b70; stroke-width: 2"/>
   </g>
   <g id="patch_9">
    <path d="M 348.789955 255.08 
L 381.606457 255.08 
Q 382.600897 255.08 382.600897 248.081035 
L 382.600897 192.089318 
Q 382.600897 185.090353 381.606457 185.090353 
L 348.789955 185.090353 
Q 347.795516 185.090353 347.795516 192.089318 
L 347.795516 248.081035 
Q 347.795516 255.08 348.789955 255.08 
z
" clip-path="url(#p35c0e11d1c)" style="fill: #e7e3ff; stroke: #1f3b70; stroke-width: 2"/>
   </g>
   <g id="patch_10">
    <path d="M 402.116771 255.08 
L 436.010583 255.08 
Q 436.466368 255.08 436.466368 251.872141 
L 436.466368 226.209271 
Q 436.466368 223.001412 436.010583 223.001412 
L 402.116771 223.001412 
Q 401.660987 223.001412 401.660987 226.209271 
L 401.660987 251.872141 
Q 401.660987 255.08 402.116771 255.08 
z
" clip-path="url(#p35c0e11d1c)" style="fill: #c4f1e0; stroke: #1f3b70; stroke-width: 2"/>
   </g>
   <g id="patch_11">
    <path d="M 455.857937 255.08 
L 490.000359 255.08 
Q 490.331839 255.08 490.331839 252.747012 
L 490.331839 234.083106 
Q 490.331839 231.750118 490.000359 231.750118 
L 455.857937 231.750118 
Q 455.526457 231.750118 455.526457 234.083106 
L 455.526457 252.747012 
Q 455.526457 255.08 455.857937 255.08 
z
" clip-path="url(#p35c0e11d1c)" style="fill: #ffd6cc; stroke: #1f3b70; stroke-width: 2"/>
   </g>
   <g id="patch_12">
    <path d="M 509.599103 255.08 
L 543.990135 255.08 
Q 544.197309 255.08 544.197309 253.621882 
L 544.197309 241.956941 
Q 544.197309 240.498824 543.990135 240.498824 
L 509.599103 240.498824 
Q 509.391928 240.498824 509.391928 241.956941 
L 509.391928 253.621882 
Q 509.391928 255.08 509.599103 255.08 
z
" clip-path="url(#p35c0e11d1c)" style="fill: #d9d7ff; stroke: #1f3b70; stroke-width: 2"/>
   </g>
   <g id="matplotlib.axis_1">
    <g id="xtick_1">
     <g id="line2d_1">
      <defs>
       <path id="m81f7a7ee42" d="M 0 0 
L 0 3.5 
" style="stroke: #000000; stroke-width: 0.8"/>
      </defs>
      <g>
       <use xlink:href="#m81f7a7ee42" x="42.005381" y="255.08" style="stroke: #000000; stroke-width: 0.8"/>
      </g>
     </g>
     <g id="text_1">
      <!-- … -->
      <g style="fill: #1f3b70" transform="translate(36.005381 271.198125) scale(0.12 -0.12)">
       <defs>
        <path id="DejaVuSans-2026" d="M 2869 794 
L 3531 794 
L 3531 0 
L 2869 0 
L 2869 794 
z
M 4997 794 
L 5663 794 
L 5663 0 
L 4997 0 
L 4997 794 
z
M 738 794 
L 1403 794 
L 1403 0 
L 738 0 
L 738 794 
z
" transform="scale(0.015625)"/>
       </defs>
       <use xlink:href="#DejaVuSans-2026"/>
      </g>
     </g>
    </g>
    <g id="xtick_2">
     <g id="line2d_2">
      <g>
       <use xlink:href="#m81f7a7ee42" x="95.870852" y="255.08" style="stroke: #000000; stroke-width: 0.8"/>
      </g>
     </g>
     <g id="text_2">
      <!-- … -->
      <g style="fill: #1f3b70" transform="translate(89.870852 271.198125) scale(0.12 -0.12)">
       <use xlink:href="#DejaVuSans-2026"/>
      </g>
     </g>
    </g>
    <g id="xtick_3">
     <g id="line2d_3">
      <g>
       <use xlink:href="#m81f7a7ee42" x="149.736323" y="255.08" style="stroke: #000000; stroke-width: 0.8"/>
      </g>
     </g>
     <g id="text_3">
      <!-- … -->
      <g style="fill: #1f3b70" transform="translate(143.736323 271.198125) scale(0.12 -0.12)">
       <use xlink:href="#DejaVuSans-2026"/>
      </g>
     </g>
    </g>
    <g id="xtick_4">
     <g id="line2d_4">
      <g>
       <use xlink:href="#m81f7a7ee42" x="203.601794" y="255.08" style="stroke: #000000; stroke-width: 0.8"/>
      </g>
     </g>
     <g id="text_4">
      <!-- … -->
      <g style="fill: #1f3b70" transform="translate(197.601794 271.198125) scale(0.12 -0.12)">
       <use xlink:href="#DejaVuSans-2026"/>
      </g>
     </g>
    </g>
    <g id="xtick_5">
     <g id="line2d_5">
      <g>
       <use xlink:href="#m81f7a7ee42" x="257.467265" y="255.08" style="stroke: #000000; stroke-width: 0.8"/>
      </g>
     </g>
     <g id="text_5">
      <!-- even -->
      <g style="fill: #1f3b70" transform="translate(242.729765 271.198125) scale(0.12 -0.12)">
       <defs>
        <path id="DejaVuSans-65" d="M 3597 1894 
L 3597 1613 
L 953 1613 
Q 991 1019 1311 708 
Q 1631 397 2203 397 
Q 2534 397 2845 478 
Q 3156 559 3463 722 
L 3463 178 
Q 3153 47 2828 -22 
Q 2503 -91 2169 -91 
Q 1331 -91 842 396 
Q 353 884 353 1716 
Q 353 2575 817 3079 
Q 1281 3584 2069 3584 
Q 2775 3584 3186 3129 
Q 3597 2675 3597 1894 
z
M 3022 2063 
Q 3016 2534 2758 2815 
Q 2500 3097 2075 3097 
Q 1594 3097 1305 2825 
Q 1016 2553 972 2059 
L 3022 2063 
z
" transform="scale(0.015625)"/>
        <path id="DejaVuSans-76" d="M 191 3500 
L 800 3500 
L 1894 563 
L 2988 3500 
L 3597 3500 
L 2284 0 
L 1503 0 
L 191 3500 
z
" transform="scale(0.015625)"/>
        <path id="DejaVuSans-6e" d="M 3513 2113 
L 3513 0 
L 2938 0 
L 2938 2094 
Q 2938 2591 2744 2837 
Q 2550 3084 2163 3084 
Q 1697 3084 1428 2787 
Q 1159 2491 1159 1978 
L 1159 0 
L 581 0 
L 581 3500 
L 1159 3500 
L 1159 2956 
Q 1366 3272 1645 3428 
Q 1925 3584 2291 3584 
Q 2894 3584 3203 3211 
Q 3513 2838 3513 2113 
z
" transform="scale(0.015625)"/>
       </defs>
       <use xlink:href="#DejaVuSans-65"/>
       <use xlink:href="#DejaVuSans-76" x="61.523438"/>
       <use xlink:href="#DejaVuSans-65" x="120.703125"/>
       <use xlink:href="#DejaVuSans-6e" x="182.226562"/>
      </g>
     </g>
    </g>
    <g id="xtick_6">
     <g id="line2d_6">
      <g>
       <use xlink:href="#m81f7a7ee42" x="311.332735" y="255.08" style="stroke: #000000; stroke-width: 0.8"/>
      </g>
     </g>
     <g id="text_6">
      <!-- old -->
      <g style="fill: #1f3b70" transform="translate(302.185548 271.198125) scale(0.12 -0.12)">
       <defs>
        <path id="DejaVuSans-6f" d="M 1959 3097 
Q 1497 3097 1228 2736 
Q 959 2375 959 1747 
Q 959 1119 1226 758 
Q 1494 397 1959 397 
Q 2419 397 2687 759 
Q 2956 1122 2956 1747 
Q 2956 2369 2687 2733 
Q 2419 3097 1959 3097 
z
M 1959 3584 
Q 2709 3584 3137 3096 
Q 3566 2609 3566 1747 
Q 3566 888 3137 398 
Q 2709 -91 1959 -91 
Q 1206 -91 779 398 
Q 353 888 353 1747 
Q 353 2609 779 3096 
Q 1206 3584 1959 3584 
z
" transform="scale(0.015625)"/>
        <path id="DejaVuSans-6c" d="M 603 4863 
L 1178 4863 
L 1178 0 
L 603 0 
L 603 4863 
z
" transform="scale(0.015625)"/>
        <path id="DejaVuSans-64" d="M 2906 2969 
L 2906 4863 
L 3481 4863 
L 3481 0 
L 2906 0 
L 2906 525 
Q 2725 213 2448 61 
Q 2172 -91 1784 -91 
Q 1150 -91 751 415 
Q 353 922 353 1747 
Q 353 2572 751 3078 
Q 1150 3584 1784 3584 
Q 2172 3584 2448 3432 
Q 2725 3281 2906 2969 
z
M 947 1747 
Q 947 1113 1208 752 
Q 1469 391 1925 391 
Q 2381 391 2643 752 
Q 2906 1113 2906 1747 
Q 2906 2381 2643 2742 
Q 2381 3103 1925 3103 
Q 1469 3103 1208 2742 
Q 947 2381 947 1747 
z
" transform="scale(0.015625)"/>
       </defs>
       <use xlink:href="#DejaVuSans-6f"/>
       <use xlink:href="#DejaVuSans-6c" x="61.181641"/>
       <use xlink:href="#DejaVuSans-64" x="88.964844"/>
      </g>
     </g>
    </g>
    <g id="xtick_7">
     <g id="line2d_7">
      <g>
       <use xlink:href="#m81f7a7ee42" x="365.198206" y="255.08" style="stroke: #000000; stroke-width: 0.8"/>
      </g>
     </g>
     <g id="text_7">
      <!-- … -->
      <g style="fill: #1f3b70" transform="translate(359.198206 271.198125) scale(0.12 -0.12)">
       <use xlink:href="#DejaVuSans-2026"/>
      </g>
     </g>
    </g>
    <g id="xtick_8">
     <g id="line2d_8">
      <g>
       <use xlink:href="#m81f7a7ee42" x="419.063677" y="255.08" style="stroke: #000000; stroke-width: 0.8"/>
      </g>
     </g>
     <g id="text_8">
      <!-- … -->
      <g style="fill: #1f3b70" transform="translate(413.063677 271.198125) scale(0.12 -0.12)">
       <use xlink:href="#DejaVuSans-2026"/>
      </g>
     </g>
    </g>
    <g id="xtick_9">
     <g id="line2d_9">
      <g>
       <use xlink:href="#m81f7a7ee42" x="472.929148" y="255.08" style="stroke: #000000; stroke-width: 0.8"/>
      </g>
     </g>
     <g id="text_9">
      <!-- … -->
      <g style="fill: #1f3b70" transform="translate(466.929148 271.198125) scale(0.12 -0.12)">
       <use xlink:href="#DejaVuSans-2026"/>
      </g>
     </g>
    </g>
    <g id="xtick_10">
     <g id="line2d_10">
      <g>
       <use xlink:href="#m81f7a7ee42" x="526.794619" y="255.08" style="stroke: #000000; stroke-width: 0.8"/>
      </g>
     </g>
     <g id="text_10">
      <!-- … -->
      <g style="fill: #1f3b70" transform="translate(520.794619 271.198125) scale(0.12 -0.12)">
       <use xlink:href="#DejaVuSans-2026"/>
      </g>
     </g>
    </g>
   </g>
   <g id="matplotlib.axis_2">
    <g id="ytick_1">
     <g id="line2d_11"/>
    </g>
    <g id="ytick_2">
     <g id="line2d_12"/>
    </g>
    <g id="ytick_3">
     <g id="line2d_13"/>
    </g>
    <g id="ytick_4">
     <g id="line2d_14"/>
    </g>
    <g id="ytick_5">
     <g id="line2d_15"/>
    </g>
    <g id="ytick_6">
     <g id="line2d_16"/>
    </g>
    <g id="ytick_7">
     <g id="line2d_17"/>
    </g>
    <g id="ytick_8">
     <g id="line2d_18"/>
    </g>
    <g id="ytick_9">
     <g id="line2d_19"/>
    </g>
   </g>
   <g id="patch_13">
    <path d="M 7.2 255.08 
L 561.6 255.08 
" style="fill: none; stroke: #1f3b70; stroke-width: 2; stroke-linejoin: miter; stroke-linecap: square"/>
   </g>
   <g id="text_11">
    <!-- … -->
    <g style="fill: #1f3b70" transform="translate(36.005381 229.254493) scale(0.12 -0.12)">
     <use xlink:href="#DejaVuSans-2026"/>
    </g>
   </g>
   <g id="text_12">
    <!-- … -->
    <g style="fill: #1f3b70" transform="translate(89.870852 232.170728) scale(0.12 -0.12)">
     <use xlink:href="#DejaVuSans-2026"/>
    </g>
   </g>
   <g id="text_13">
    <!-- … -->
    <g style="fill: #1f3b70" transform="translate(143.736323 235.086963) scale(0.12 -0.12)">
     <use xlink:href="#DejaVuSans-2026"/>
    </g>
   </g>
   <g id="text_14">
    <!-- … -->
    <g style="fill: #1f3b70" transform="translate(197.601794 238.003199) scale(0.12 -0.12)">
     <use xlink:href="#DejaVuSans-2026"/>
    </g>
   </g>
   <g id="text_15">
    <!-- 34% -->
    <g style="fill: #1f3b70" transform="translate(244.131327 47.28141) scale(0.12 -0.12)">
     <defs>
      <path id="DejaVuSans-33" d="M 2597 2516 
Q 3050 2419 3304 2112 
Q 3559 1806 3559 1356 
Q 3559 666 3084 287 
Q 2609 -91 1734 -91 
Q 1441 -91 1130 -33 
Q 819 25 488 141 
L 488 750 
Q 750 597 1062 519 
Q 1375 441 1716 441 
Q 2309 441 2620 675 
Q 2931 909 2931 1356 
Q 2931 1769 2642 2001 
Q 2353 2234 1838 2234 
L 1294 2234 
L 1294 2753 
L 1863 2753 
Q 2328 2753 2575 2939 
Q 2822 3125 2822 3475 
Q 2822 3834 2567 4026 
Q 2313 4219 1838 4219 
Q 1578 4219 1281 4162 
Q 984 4106 628 3988 
L 628 4550 
Q 988 4650 1302 4700 
Q 1616 4750 1894 4750 
Q 2613 4750 3031 4423 
Q 3450 4097 3450 3541 
Q 3450 3153 3228 2886 
Q 3006 2619 2597 2516 
z
" transform="scale(0.015625)"/>
      <path id="DejaVuSans-34" d="M 2419 4116 
L 825 1625 
L 2419 1625 
L 2419 4116 
z
M 2253 4666 
L 3047 4666 
L 3047 1625 
L 3713 1625 
L 3713 1100 
L 3047 1100 
L 3047 0 
L 2419 0 
L 2419 1100 
L 313 1100 
L 313 1709 
L 2253 4666 
z
" transform="scale(0.015625)"/>
      <path id="DejaVuSans-25" d="M 4653 2053 
Q 4381 2053 4226 1822 
Q 4072 1591 4072 1178 
Q 4072 772 4226 539 
Q 4381 306 4653 306 
Q 4919 306 5073 539 
Q 5228 772 5228 1178 
Q 5228 1588 5073 1820 
Q 4919 2053 4653 2053 
z
M 4653 2450 
Q 5147 2450 5437 2106 
Q 5728 1763 5728 1178 
Q 5728 594 5436 251 
Q 5144 -91 4653 -91 
Q 4153 -91 3862 251 
Q 3572 594 3572 1178 
Q 3572 1766 3864 2108 
Q 4156 2450 4653 2450 
z
M 1428 4353 
Q 1159 4353 1004 4120 
Q 850 3888 850 3481 
Q 850 3069 1003 2837 
Q 1156 2606 1428 2606 
Q 1700 2606 1854 2837 
Q 2009 3069 2009 3481 
Q 2009 3884 1853 4118 
Q 1697 4353 1428 4353 
z
M 4250 4750 
L 4750 4750 
L 1831 -91 
L 1331 -91 
L 4250 4750 
z
M 1428 4750 
Q 1922 4750 2215 4408 
Q 2509 4066 2509 3481 
Q 2509 2891 2217 2550 
Q 1925 2209 1428 2209 
Q 931 2209 642 2551 
Q 353 2894 353 3481 
Q 353 4063 643 4406 
Q 934 4750 1428 4750 
z
" transform="scale(0.015625)"/>
     </defs>
     <use xlink:href="#DejaVuSans-33"/>
     <use xlink:href="#DejaVuSans-34" x="63.623047"/>
     <use xlink:href="#DejaVuSans-25" x="127.246094"/>
    </g>
   </g>
   <g id="text_16">
    <!-- 33% -->
    <g style="fill: #1f3b70" transform="translate(297.996798 53.113881) scale(0.12 -0.12)">
     <use xlink:href="#DejaVuSans-33"/>
     <use xlink:href="#DejaVuSans-33" x="63.623047"/>
     <use xlink:href="#DejaVuSans-25" x="127.246094"/>
    </g>
   </g>
   <g id="text_17">
    <!-- … -->
    <g style="fill: #1f3b70" transform="translate(359.198206 176.762257) scale(0.12 -0.12)">
     <use xlink:href="#DejaVuSans-2026"/>
    </g>
   </g>
   <g id="text_18">
    <!-- … -->
    <g style="fill: #1f3b70" transform="translate(413.063677 214.673316) scale(0.12 -0.12)">
     <use xlink:href="#DejaVuSans-2026"/>
    </g>
   </g>
   <g id="text_19">
    <!-- … -->
    <g style="fill: #1f3b70" transform="translate(466.929148 223.422022) scale(0.12 -0.12)">
     <use xlink:href="#DejaVuSans-2026"/>
    </g>
   </g>
   <g id="text_20">
    <!-- … -->
    <g style="fill: #1f3b70" transform="translate(520.794619 232.170728) scale(0.12 -0.12)">
     <use xlink:href="#DejaVuSans-2026"/>
    </g>
   </g>
  </g>
 </g>
 <defs>
  <clipPath id="p35c0e11d1c">
   <rect x="7.2" y="7.2" width="554.4" height="247.88"/>
  </clipPath>
 </defs>
</svg>
